999
QET
0
SECTION
2
HEADER
9
$ACADVER
1
AC1006
9
$INSBASE
10
0.0
20
0.0
30
0.0
9
$EXTMIN
10
0.0
20
0.0
9
$EXTMAX
10
4000.0
20
4000.0
9
$LIMMIN
10
0.0
20
0.0
9
$LIMMAX
10
4000.0
20
4000.0
0
ENDSEC
0
SECTION
2
TABLES
0
TABLE
2
VPORT
70
1
0
VPORT
2
*ACTIVE
70
0
10
0
20
0
11
1
21
1
12
2000
22
1350
13
0
23
0
14
1
24
1
15
0
25
0
16
0
26
0
36
1
17
0
27
0
37
0
40
2732.5
41
2.558
42
50
43
0
44
0
50
0
51
0
71
0
72
100
73
1
74
1
75
0
76
0
77
0
78
0
0
ENDTAB
0
TABLE
2
LTYPE
70
1
0
LTYPE
2
CONTINUOUS
70
64
3
Solid Line
72
65
73
0
40
0
0
ENDTAB
0
ENDSEC
0
SECTION
2
BLOCKS
0
ENDSEC
0
SECTION
2
ENTITIES
0
POLYLINE
8
0
62
0
66
1
70
8
10
0
20
0
30
0
0
VERTEX
8
0
70
32
10
13.3333
20
2687.32
30
0
0
VERTEX
8
0
70
32
10
4013.33
20
2687.32
30
0
0
VERTEX
8
0
70
32
10
4013.33
20
-12.6761
30
0
0
VERTEX
8
0
70
32
10
13.3333
20
-12.6761
30
0
0
VERTEX
8
0
70
32
10
13.3333
20
2687.32
30
0
0
SEQEND
8
0
0
POLYLINE
8
0
62
0
66
1
70
8
10
0
20
0
30
0
0
VERTEX
8
0
70
32
10
13.3333
20
2636.62
30
0
0
VERTEX
8
0
70
32
10
66.6667
20
2636.62
30
0
0
VERTEX
8
0
70
32
10
66.6667
20
2687.32
30
0
0
VERTEX
8
0
70
32
10
13.3333
20
2687.32
30
0
0
VERTEX
8
0
70
32
10
13.3333
20
2636.62
30
0
0
SEQEND
8
0
0
POLYLINE
8
0
62
0
66
1
70
8
10
0
20
0
30
0
0
VERTEX
8
0
70
32
10
66.6667
20
2636.62
30
0
0
VERTEX
8
0
70
32
10
226.667
20
2636.62
30
0
0
VERTEX
8
0
70
32
10
226.667
20
2687.32
30
0
0
VERTEX
8
0
70
32
10
66.6667
20
2687.32
30
0
0
VERTEX
8
0
70
32
10
66.6667
20
2636.62
30
0
0
SEQEND
8
0
0
TEXT
8
0
62
0
10
106.667
20
2661.97
30
0
40
35.493
41
1
1
1
50
0
51
0
72
1
73
2
11
146.667
21
2661.97
31
0
0
POLYLINE
8
0
62
0
66
1
70
8
10
0
20
0
30
0
0
VERTEX
8
0
70
32
10
226.667
20
2636.62
30
0
0
VERTEX
8
0
70
32
10
386.667
20
2636.62
30
0
0
VERTEX
8
0
70
32
10
386.667
20
2687.32
30
0
0
VERTEX
8
0
70
32
10
226.667
20
2687.32
30
0
0
VERTEX
8
0
70
32
10
226.667
20
2636.62
30
0
0
SEQEND
8
0
0
TEXT
8
0
62
0
10
266.667
20
2661.97
30
0
40
35.493
41
1
1
2
50
0
51
0
72
1
73
2
11
306.667
21
2661.97
31
0
0
POLYLINE
8
0
62
0
66
1
70
8
10
0
20
0
30
0
0
VERTEX
8
0
70
32
10
386.667
20
2636.62
30
0
0
VERTEX
8
0
70
32
10
546.667
20
2636.62
30
0
0
VERTEX
8
0
70
32
10
546.667
20
2687.32
30
0
0
VERTEX
8
0
70
32
10
386.667
20
2687.32
30
0
0
VERTEX
8
0
70
32
10
386.667
20
2636.62
30
0
0
SEQEND
8
0
0
TEXT
8
0
62
0
10
426.667
20
2661.97
30
0
40
35.493
41
1
1
3
50
0
51
0
72
1
73
2
11
466.667
21
2661.97
31
0
0
POLYLINE
8
0
62
0
66
1
70
8
10
0
20
0
30
0
0
VERTEX
8
0
70
32
10
546.667
20
2636.62
30
0
0
VERTEX
8
0
70
32
10
706.667
20
2636.62
30
0
0
VERTEX
8
0
70
32
10
706.667
20
2687.32
30
0
0
VERTEX
8
0
70
32
10
546.667
20
2687.32
30
0
0
VERTEX
8
0
70
32
10
546.667
20
2636.62
30
0
0
SEQEND
8
0
0
TEXT
8
0
62
0
10
586.667
20
2661.97
30
0
40
35.493
41
1
1
4
50
0
51
0
72
1
73
2
11
626.667
21
2661.97
31
0
0
POLYLINE
8
0
62
0
66
1
70
8
10
0
20
0
30
0
0
VERTEX
8
0
70
32
10
706.667
20
2636.62
30
0
0
VERTEX
8
0
70
32
10
866.667
20
2636.62
30
0
0
VERTEX
8
0
70
32
10
866.667
20
2687.32
30
0
0
VERTEX
8
0
70
32
10
706.667
20
2687.32
30
0
0
VERTEX
8
0
70
32
10
706.667
20
2636.62
30
0
0
SEQEND
8
0
0
TEXT
8
0
62
0
10
746.667
20
2661.97
30
0
40
35.493
41
1
1
5
50
0
51
0
72
1
73
2
11
786.667
21
2661.97
31
0
0
POLYLINE
8
0
62
0
66
1
70
8
10
0
20
0
30
0
0
VERTEX
8
0
70
32
10
866.667
20
2636.62
30
0
0
VERTEX
8
0
70
32
10
1026.67
20
2636.62
30
0
0
VERTEX
8
0
70
32
10
1026.67
20
2687.32
30
0
0
VERTEX
8
0
70
32
10
866.667
20
2687.32
30
0
0
VERTEX
8
0
70
32
10
866.667
20
2636.62
30
0
0
SEQEND
8
0
0
TEXT
8
0
62
0
10
906.667
20
2661.97
30
0
40
35.493
41
1
1
6
50
0
51
0
72
1
73
2
11
946.667
21
2661.97
31
0
0
POLYLINE
8
0
62
0
66
1
70
8
10
0
20
0
30
0
0
VERTEX
8
0
70
32
10
1026.67
20
2636.62
30
0
0
VERTEX
8
0
70
32
10
1186.67
20
2636.62
30
0
0
VERTEX
8
0
70
32
10
1186.67
20
2687.32
30
0
0
VERTEX
8
0
70
32
10
1026.67
20
2687.32
30
0
0
VERTEX
8
0
70
32
10
1026.67
20
2636.62
30
0
0
SEQEND
8
0
0
TEXT
8
0
62
0
10
1066.67
20
2661.97
30
0
40
35.493
41
1
1
7
50
0
51
0
72
1
73
2
11
1106.67
21
2661.97
31
0
0
POLYLINE
8
0
62
0
66
1
70
8
10
0
20
0
30
0
0
VERTEX
8
0
70
32
10
1186.67
20
2636.62
30
0
0
VERTEX
8
0
70
32
10
1346.67
20
2636.62
30
0
0
VERTEX
8
0
70
32
10
1346.67
20
2687.32
30
0
0
VERTEX
8
0
70
32
10
1186.67
20
2687.32
30
0
0
VERTEX
8
0
70
32
10
1186.67
20
2636.62
30
0
0
SEQEND
8
0
0
TEXT
8
0
62
0
10
1226.67
20
2661.97
30
0
40
35.493
41
1
1
8
50
0
51
0
72
1
73
2
11
1266.67
21
2661.97
31
0
0
POLYLINE
8
0
62
0
66
1
70
8
10
0
20
0
30
0
0
VERTEX
8
0
70
32
10
1346.67
20
2636.62
30
0
0
VERTEX
8
0
70
32
10
1506.67
20
2636.62
30
0
0
VERTEX
8
0
70
32
10
1506.67
20
2687.32
30
0
0
VERTEX
8
0
70
32
10
1346.67
20
2687.32
30
0
0
VERTEX
8
0
70
32
10
1346.67
20
2636.62
30
0
0
SEQEND
8
0
0
TEXT
8
0
62
0
10
1386.67
20
2661.97
30
0
40
35.493
41
1
1
9
50
0
51
0
72
1
73
2
11
1426.67
21
2661.97
31
0
0
POLYLINE
8
0
62
0
66
1
70
8
10
0
20
0
30
0
0
VERTEX
8
0
70
32
10
1506.67
20
2636.62
30
0
0
VERTEX
8
0
70
32
10
1666.67
20
2636.62
30
0
0
VERTEX
8
0
70
32
10
1666.67
20
2687.32
30
0
0
VERTEX
8
0
70
32
10
1506.67
20
2687.32
30
0
0
VERTEX
8
0
70
32
10
1506.67
20
2636.62
30
0
0
SEQEND
8
0
0
TEXT
8
0
62
0
10
1546.67
20
2661.97
30
0
40
35.493
41
1
1
10
50
0
51
0
72
1
73
2
11
1586.67
21
2661.97
31
0
0
POLYLINE
8
0
62
0
66
1
70
8
10
0
20
0
30
0
0
VERTEX
8
0
70
32
10
1666.67
20
2636.62
30
0
0
VERTEX
8
0
70
32
10
1826.67
20
2636.62
30
0
0
VERTEX
8
0
70
32
10
1826.67
20
2687.32
30
0
0
VERTEX
8
0
70
32
10
1666.67
20
2687.32
30
0
0
VERTEX
8
0
70
32
10
1666.67
20
2636.62
30
0
0
SEQEND
8
0
0
TEXT
8
0
62
0
10
1706.67
20
2661.97
30
0
40
35.493
41
1
1
11
50
0
51
0
72
1
73
2
11
1746.67
21
2661.97
31
0
0
POLYLINE
8
0
62
0
66
1
70
8
10
0
20
0
30
0
0
VERTEX
8
0
70
32
10
1826.67
20
2636.62
30
0
0
VERTEX
8
0
70
32
10
1986.67
20
2636.62
30
0
0
VERTEX
8
0
70
32
10
1986.67
20
2687.32
30
0
0
VERTEX
8
0
70
32
10
1826.67
20
2687.32
30
0
0
VERTEX
8
0
70
32
10
1826.67
20
2636.62
30
0
0
SEQEND
8
0
0
TEXT
8
0
62
0
10
1866.67
20
2661.97
30
0
40
35.493
41
1
1
12
50
0
51
0
72
1
73
2
11
1906.67
21
2661.97
31
0
0
POLYLINE
8
0
62
0
66
1
70
8
10
0
20
0
30
0
0
VERTEX
8
0
70
32
10
1986.67
20
2636.62
30
0
0
VERTEX
8
0
70
32
10
2146.67
20
2636.62
30
0
0
VERTEX
8
0
70
32
10
2146.67
20
2687.32
30
0
0
VERTEX
8
0
70
32
10
1986.67
20
2687.32
30
0
0
VERTEX
8
0
70
32
10
1986.67
20
2636.62
30
0
0
SEQEND
8
0
0
TEXT
8
0
62
0
10
2026.67
20
2661.97
30
0
40
35.493
41
1
1
13
50
0
51
0
72
1
73
2
11
2066.67
21
2661.97
31
0
0
POLYLINE
8
0
62
0
66
1
70
8
10
0
20
0
30
0
0
VERTEX
8
0
70
32
10
2146.67
20
2636.62
30
0
0
VERTEX
8
0
70
32
10
2306.67
20
2636.62
30
0
0
VERTEX
8
0
70
32
10
2306.67
20
2687.32
30
0
0
VERTEX
8
0
70
32
10
2146.67
20
2687.32
30
0
0
VERTEX
8
0
70
32
10
2146.67
20
2636.62
30
0
0
SEQEND
8
0
0
TEXT
8
0
62
0
10
2186.67
20
2661.97
30
0
40
35.493
41
1
1
14
50
0
51
0
72
1
73
2
11
2226.67
21
2661.97
31
0
0
POLYLINE
8
0
62
0
66
1
70
8
10
0
20
0
30
0
0
VERTEX
8
0
70
32
10
2306.67
20
2636.62
30
0
0
VERTEX
8
0
70
32
10
2466.67
20
2636.62
30
0
0
VERTEX
8
0
70
32
10
2466.67
20
2687.32
30
0
0
VERTEX
8
0
70
32
10
2306.67
20
2687.32
30
0
0
VERTEX
8
0
70
32
10
2306.67
20
2636.62
30
0
0
SEQEND
8
0
0
TEXT
8
0
62
0
10
2346.67
20
2661.97
30
0
40
35.493
41
1
1
15
50
0
51
0
72
1
73
2
11
2386.67
21
2661.97
31
0
0
POLYLINE
8
0
62
0
66
1
70
8
10
0
20
0
30
0
0
VERTEX
8
0
70
32
10
2466.67
20
2636.62
30
0
0
VERTEX
8
0
70
32
10
2626.67
20
2636.62
30
0
0
VERTEX
8
0
70
32
10
2626.67
20
2687.32
30
0
0
VERTEX
8
0
70
32
10
2466.67
20
2687.32
30
0
0
VERTEX
8
0
70
32
10
2466.67
20
2636.62
30
0
0
SEQEND
8
0
0
TEXT
8
0
62
0
10
2506.67
20
2661.97
30
0
40
35.493
41
1
1
16
50
0
51
0
72
1
73
2
11
2546.67
21
2661.97
31
0
0
POLYLINE
8
0
62
0
66
1
70
8
10
0
20
0
30
0
0
VERTEX
8
0
70
32
10
2626.67
20
2636.62
30
0
0
VERTEX
8
0
70
32
10
2786.67
20
2636.62
30
0
0
VERTEX
8
0
70
32
10
2786.67
20
2687.32
30
0
0
VERTEX
8
0
70
32
10
2626.67
20
2687.32
30
0
0
VERTEX
8
0
70
32
10
2626.67
20
2636.62
30
0
0
SEQEND
8
0
0
TEXT
8
0
62
0
10
2666.67
20
2661.97
30
0
40
35.493
41
1
1
17
50
0
51
0
72
1
73
2
11
2706.67
21
2661.97
31
0
0
POLYLINE
8
0
62
0
66
1
70
8
10
0
20
0
30
0
0
VERTEX
8
0
70
32
10
2786.67
20
2636.62
30
0
0
VERTEX
8
0
70
32
10
2946.67
20
2636.62
30
0
0
VERTEX
8
0
70
32
10
2946.67
20
2687.32
30
0
0
VERTEX
8
0
70
32
10
2786.67
20
2687.32
30
0
0
VERTEX
8
0
70
32
10
2786.67
20
2636.62
30
0
0
SEQEND
8
0
0
TEXT
8
0
62
0
10
2826.67
20
2661.97
30
0
40
35.493
41
1
1
18
50
0
51
0
72
1
73
2
11
2866.67
21
2661.97
31
0
0
POLYLINE
8
0
62
0
66
1
70
8
10
0
20
0
30
0
0
VERTEX
8
0
70
32
10
13.3333
20
2433.8
30
0
0
VERTEX
8
0
70
32
10
66.6667
20
2433.8
30
0
0
VERTEX
8
0
70
32
10
66.6667
20
2636.62
30
0
0
VERTEX
8
0
70
32
10
13.3333
20
2636.62
30
0
0
VERTEX
8
0
70
32
10
13.3333
20
2433.8
30
0
0
SEQEND
8
0
0
TEXT
8
0
62
0
10
18.6667
20
2514.93
30
0
40
37.3333
41
1
1
A
50
0
51
0
72
1
73
2
11
40
21
2514.93
31
0
0
POLYLINE
8
0
62
0
66
1
70
8
10
0
20
0
30
0
0
VERTEX
8
0
70
32
10
13.3333
20
2230.99
30
0
0
VERTEX
8
0
70
32
10
66.6667
20
2230.99
30
0
0
VERTEX
8
0
70
32
10
66.6667
20
2433.8
30
0
0
VERTEX
8
0
70
32
10
13.3333
20
2433.8
30
0
0
VERTEX
8
0
70
32
10
13.3333
20
2230.99
30
0
0
SEQEND
8
0
0
TEXT
8
0
62
0
10
18.6667
20
2312.11
30
0
40
37.3333
41
1
1
B
50
0
51
0
72
1
73
2
11
40
21
2312.11
31
0
0
POLYLINE
8
0
62
0
66
1
70
8
10
0
20
0
30
0
0
VERTEX
8
0
70
32
10
13.3333
20
2028.17
30
0
0
VERTEX
8
0
70
32
10
66.6667
20
2028.17
30
0
0
VERTEX
8
0
70
32
10
66.6667
20
2230.99
30
0
0
VERTEX
8
0
70
32
10
13.3333
20
2230.99
30
0
0
VERTEX
8
0
70
32
10
13.3333
20
2028.17
30
0
0
SEQEND
8
0
0
TEXT
8
0
62
0
10
18.6667
20
2109.3
30
0
40
37.3333
41
1
1
C
50
0
51
0
72
1
73
2
11
40
21
2109.3
31
0
0
POLYLINE
8
0
62
0
66
1
70
8
10
0
20
0
30
0
0
VERTEX
8
0
70
32
10
13.3333
20
1825.35
30
0
0
VERTEX
8
0
70
32
10
66.6667
20
1825.35
30
0
0
VERTEX
8
0
70
32
10
66.6667
20
2028.17
30
0
0
VERTEX
8
0
70
32
10
13.3333
20
2028.17
30
0
0
VERTEX
8
0
70
32
10
13.3333
20
1825.35
30
0
0
SEQEND
8
0
0
TEXT
8
0
62
0
10
18.6667
20
1906.48
30
0
40
37.3333
41
1
1
D
50
0
51
0
72
1
73
2
11
40
21
1906.48
31
0
0
POLYLINE
8
0
62
0
66
1
70
8
10
0
20
0
30
0
0
VERTEX
8
0
70
32
10
13.3333
20
1622.54
30
0
0
VERTEX
8
0
70
32
10
66.6667
20
1622.54
30
0
0
VERTEX
8
0
70
32
10
66.6667
20
1825.35
30
0
0
VERTEX
8
0
70
32
10
13.3333
20
1825.35
30
0
0
VERTEX
8
0
70
32
10
13.3333
20
1622.54
30
0
0
SEQEND
8
0
0
TEXT
8
0
62
0
10
18.6667
20
1703.66
30
0
40
37.3333
41
1
1
E
50
0
51
0
72
1
73
2
11
40
21
1703.66
31
0
0
POLYLINE
8
0
62
0
66
1
70
8
10
0
20
0
30
0
0
VERTEX
8
0
70
32
10
13.3333
20
1419.72
30
0
0
VERTEX
8
0
70
32
10
66.6667
20
1419.72
30
0
0
VERTEX
8
0
70
32
10
66.6667
20
1622.54
30
0
0
VERTEX
8
0
70
32
10
13.3333
20
1622.54
30
0
0
VERTEX
8
0
70
32
10
13.3333
20
1419.72
30
0
0
SEQEND
8
0
0
TEXT
8
0
62
0
10
18.6667
20
1500.85
30
0
40
37.3333
41
1
1
F
50
0
51
0
72
1
73
2
11
40
21
1500.85
31
0
0
POLYLINE
8
0
62
0
66
1
70
8
10
0
20
0
30
0
0
VERTEX
8
0
70
32
10
13.3333
20
1216.9
30
0
0
VERTEX
8
0
70
32
10
66.6667
20
1216.9
30
0
0
VERTEX
8
0
70
32
10
66.6667
20
1419.72
30
0
0
VERTEX
8
0
70
32
10
13.3333
20
1419.72
30
0
0
VERTEX
8
0
70
32
10
13.3333
20
1216.9
30
0
0
SEQEND
8
0
0
TEXT
8
0
62
0
10
18.6667
20
1298.03
30
0
40
37.3333
41
1
1
G
50
0
51
0
72
1
73
2
11
40
21
1298.03
31
0
0
POLYLINE
8
0
62
0
66
1
70
8
10
0
20
0
30
0
0
VERTEX
8
0
70
32
10
13.3333
20
1014.08
30
0
0
VERTEX
8
0
70
32
10
66.6667
20
1014.08
30
0
0
VERTEX
8
0
70
32
10
66.6667
20
1216.9
30
0
0
VERTEX
8
0
70
32
10
13.3333
20
1216.9
30
0
0
VERTEX
8
0
70
32
10
13.3333
20
1014.08
30
0
0
SEQEND
8
0
0
TEXT
8
0
62
0
10
18.6667
20
1095.21
30
0
40
37.3333
41
1
1
H
50
0
51
0
72
1
73
2
11
40
21
1095.21
31
0
0
POLYLINE
8
0
62
0
66
1
70
8
10
0
20
0
30
0
0
VERTEX
8
0
70
32
10
13.3333
20
811.268
30
0
0
VERTEX
8
0
70
32
10
66.6667
20
811.268
30
0
0
VERTEX
8
0
70
32
10
66.6667
20
1014.08
30
0
0
VERTEX
8
0
70
32
10
13.3333
20
1014.08
30
0
0
VERTEX
8
0
70
32
10
13.3333
20
811.268
30
0
0
SEQEND
8
0
0
TEXT
8
0
62
0
10
18.6667
20
892.394
30
0
40
37.3333
41
1
1
I
50
0
51
0
72
1
73
2
11
40
21
892.394
31
0
0
POLYLINE
8
0
62
0
66
1
70
8
10
0
20
0
30
0
0
VERTEX
8
0
70
32
10
13.3333
20
709.859
30
0
0
VERTEX
8
0
70
32
10
2946.67
20
709.859
30
0
0
VERTEX
8
0
70
32
10
2946.67
20
811.268
30
0
0
VERTEX
8
0
70
32
10
13.3333
20
811.268
30
0
0
VERTEX
8
0
70
32
10
13.3333
20
709.859
30
0
0
SEQEND
8
0
0
POLYLINE
8
0
62
0
66
1
70
8
10
0
20
0
30
0
0
VERTEX
8
0
70
32
10
13.3333
20
785.915
30
0
0
VERTEX
8
0
70
32
10
130.667
20
785.915
30
0
0
VERTEX
8
0
70
32
10
130.667
20
811.268
30
0
0
VERTEX
8
0
70
32
10
13.3333
20
811.268
30
0
0
VERTEX
8
0
70
32
10
13.3333
20
785.915
30
0
0
SEQEND
8
0
0
TEXT
8
0
62
0
10
8
20
798.592
30
0
40
15.2113
41
1
1
 
50
0
51
0
72
1
73
2
11
72
21
798.592
31
0
0
POLYLINE
8
0
62
0
66
1
70
8
10
0
20
0
30
0
0
VERTEX
8
0
70
32
10
130.667
20
785.915
30
0
0
VERTEX
8
0
70
32
10
306.667
20
785.915
30
0
0
VERTEX
8
0
70
32
10
306.667
20
811.268
30
0
0
VERTEX
8
0
70
32
10
130.667
20
811.268
30
0
0
VERTEX
8
0
70
32
10
130.667
20
785.915
30
0
0
SEQEND
8
0
0
TEXT
8
0
62
0
10
125.333
20
798.592
30
0
40
15.2113
41
1
1
 
50
0
51
0
72
1
73
2
11
218.667
21
798.592
31
0
0
POLYLINE
8
0
62
0
66
1
70
8
10
0
20
0
30
0
0
VERTEX
8
0
70
32
10
306.667
20
785.915
30
0
0
VERTEX
8
0
70
32
10
394.667
20
785.915
30
0
0
VERTEX
8
0
70
32
10
394.667
20
811.268
30
0
0
VERTEX
8
0
70
32
10
306.667
20
811.268
30
0
0
VERTEX
8
0
70
32
10
306.667
20
785.915
30
0
0
SEQEND
8
0
0
TEXT
8
0
62
0
10
301.333
20
798.592
30
0
40
15.2113
41
1
1
 
50
0
51
0
72
1
73
2
11
350.667
21
798.592
31
0
0
POLYLINE
8
0
62
0
66
1
70
8
10
0
20
0
30
0
0
VERTEX
8
0
70
32
10
394.667
20
785.915
30
0
0
VERTEX
8
0
70
32
10
453.333
20
785.915
30
0
0
VERTEX
8
0
70
32
10
453.333
20
811.268
30
0
0
VERTEX
8
0
70
32
10
394.667
20
811.268
30
0
0
VERTEX
8
0
70
32
10
394.667
20
785.915
30
0
0
SEQEND
8
0
0
TEXT
8
0
62
0
10
389.333
20
798.592
30
0
40
15.2113
41
1
1
 
50
0
51
0
72
1
73
2
11
424
21
798.592
31
0
0
POLYLINE
8
0
62
0
66
1
70
8
10
0
20
0
30
0
0
VERTEX
8
0
70
32
10
453.333
20
785.915
30
0
0
VERTEX
8
0
70
32
10
541.333
20
785.915
30
0
0
VERTEX
8
0
70
32
10
541.333
20
811.268
30
0
0
VERTEX
8
0
70
32
10
453.333
20
811.268
30
0
0
VERTEX
8
0
70
32
10
453.333
20
785.915
30
0
0
SEQEND
8
0
0
TEXT
8
0
62
0
10
448
20
798.592
30
0
40
12.6761
41
1
1
 DATE
50
0
51
0
72
1
73
2
11
497.333
21
798.592
31
0
0
POLYLINE
8
0
62
0
66
1
70
8
10
0
20
0
30
0
0
VERTEX
8
0
70
32
10
541.333
20
785.915
30
0
0
VERTEX
8
0
70
32
10
746.667
20
785.915
30
0
0
VERTEX
8
0
70
32
10
746.667
20
811.268
30
0
0
VERTEX
8
0
70
32
10
541.333
20
811.268
30
0
0
VERTEX
8
0
70
32
10
541.333
20
785.915
30
0
0
SEQEND
8
0
0
TEXT
8
0
62
0
10
536
20
798.592
30
0
40
15.2113
41
0.973144
1
 21.06.2020
50
0
51
0
72
0
73
2
11
541.333
21
798.592
31
0
0
POLYLINE
8
0
62
0
66
1
70
8
10
0
20
0
30
0
0
VERTEX
8
0
70
32
10
746.667
20
735.211
30
0
0
VERTEX
8
0
70
32
10
1010.67
20
735.211
30
0
0
VERTEX
8
0
70
32
10
1010.67
20
811.268
30
0
0
VERTEX
8
0
70
32
10
746.667
20
811.268
30
0
0
VERTEX
8
0
70
32
10
746.667
20
735.211
30
0
0
SEQEND
8
0
0
POLYLINE
8
0
62
0
66
1
70
8
10
0
20
0
30
0
0
VERTEX
8
0
70
32
10
1626.67
20
709.859
30
0
0
VERTEX
8
0
70
32
10
2125.33
20
709.859
30
0
0
VERTEX
8
0
70
32
10
2125.33
20
811.268
30
0
0
VERTEX
8
0
70
32
10
1626.67
20
811.268
30
0
0
VERTEX
8
0
70
32
10
1626.67
20
709.859
30
0
0
SEQEND
8
0
0
TEXT
8
0
62
0
10
1621.33
20
760.563
30
0
40
27.8873
41
0.885731
1
 References Page
50
0
51
0
72
1
73
2
11
1876
21
760.563
31
0
0
POLYLINE
8
0
62
0
66
1
70
8
10
0
20
0
30
0
0
VERTEX
8
0
70
32
10
2125.33
20
760.563
30
0
0
VERTEX
8
0
70
32
10
2624
20
760.563
30
0
0
VERTEX
8
0
70
32
10
2624
20
811.268
30
0
0
VERTEX
8
0
70
32
10
2125.33
20
811.268
30
0
0
VERTEX
8
0
70
32
10
2125.33
20
760.563
30
0
0
SEQEND
8
0
0
TEXT
8
0
62
0
10
2120
20
785.915
30
0
40
22.8169
41
1
1
 Example project
50
0
51
0
72
1
73
2
11
2374.67
21
785.915
31
0
0
POLYLINE
8
0
62
0
66
1
70
8
10
0
20
0
30
0
0
VERTEX
8
0
70
32
10
2624
20
785.915
30
0
0
VERTEX
8
0
70
32
10
2946.67
20
785.915
30
0
0
VERTEX
8
0
70
32
10
2946.67
20
811.268
30
0
0
VERTEX
8
0
70
32
10
2624
20
811.268
30
0
0
VERTEX
8
0
70
32
10
2624
20
785.915
30
0
0
SEQEND
8
0
0
TEXT
8
0
62
0
10
2618.67
20
798.592
30
0
40
15.2113
41
1
1
 Proj N°: 
50
0
51
0
72
0
73
2
11
2624
21
798.592
31
0
0
POLYLINE
8
0
62
0
66
1
70
8
10
0
20
0
30
0
0
VERTEX
8
0
70
32
10
13.3333
20
760.563
30
0
0
VERTEX
8
0
70
32
10
130.667
20
760.563
30
0
0
VERTEX
8
0
70
32
10
130.667
20
785.915
30
0
0
VERTEX
8
0
70
32
10
13.3333
20
785.915
30
0
0
VERTEX
8
0
70
32
10
13.3333
20
760.563
30
0
0
SEQEND
8
0
0
TEXT
8
0
62
0
10
8
20
773.239
30
0
40
15.2113
41
1
1
 
50
0
51
0
72
1
73
2
11
72
21
773.239
31
0
0
POLYLINE
8
0
62
0
66
1
70
8
10
0
20
0
30
0
0
VERTEX
8
0
70
32
10
130.667
20
760.563
30
0
0
VERTEX
8
0
70
32
10
306.667
20
760.563
30
0
0
VERTEX
8
0
70
32
10
306.667
20
785.915
30
0
0
VERTEX
8
0
70
32
10
130.667
20
785.915
30
0
0
VERTEX
8
0
70
32
10
130.667
20
760.563
30
0
0
SEQEND
8
0
0
TEXT
8
0
62
0
10
125.333
20
773.239
30
0
40
15.2113
41
1
1
 
50
0
51
0
72
1
73
2
11
218.667
21
773.239
31
0
0
POLYLINE
8
0
62
0
66
1
70
8
10
0
20
0
30
0
0
VERTEX
8
0
70
32
10
306.667
20
760.563
30
0
0
VERTEX
8
0
70
32
10
394.667
20
760.563
30
0
0
VERTEX
8
0
70
32
10
394.667
20
785.915
30
0
0
VERTEX
8
0
70
32
10
306.667
20
785.915
30
0
0
VERTEX
8
0
70
32
10
306.667
20
760.563
30
0
0
SEQEND
8
0
0
TEXT
8
0
62
0
10
301.333
20
773.239
30
0
40
15.2113
41
1
1
 
50
0
51
0
72
1
73
2
11
350.667
21
773.239
31
0
0
POLYLINE
8
0
62
0
66
1
70
8
10
0
20
0
30
0
0
VERTEX
8
0
70
32
10
394.667
20
760.563
30
0
0
VERTEX
8
0
70
32
10
453.333
20
760.563
30
0
0
VERTEX
8
0
70
32
10
453.333
20
785.915
30
0
0
VERTEX
8
0
70
32
10
394.667
20
785.915
30
0
0
VERTEX
8
0
70
32
10
394.667
20
760.563
30
0
0
SEQEND
8
0
0
TEXT
8
0
62
0
10
389.333
20
773.239
30
0
40
15.2113
41
1
1
 
50
0
51
0
72
1
73
2
11
424
21
773.239
31
0
0
POLYLINE
8
0
62
0
66
1
70
8
10
0
20
0
30
0
0
VERTEX
8
0
70
32
10
453.333
20
760.563
30
0
0
VERTEX
8
0
70
32
10
541.333
20
760.563
30
0
0
VERTEX
8
0
70
32
10
541.333
20
785.915
30
0
0
VERTEX
8
0
70
32
10
453.333
20
785.915
30
0
0
VERTEX
8
0
70
32
10
453.333
20
760.563
30
0
0
SEQEND
8
0
0
TEXT
8
0
62
0
10
448
20
773.239
30
0
40
12.6761
41
1
1
 DSGN
50
0
51
0
72
1
73
2
11
497.333
21
773.239
31
0
0
POLYLINE
8
0
62
0
66
1
70
8
10
0
20
0
30
0
0
VERTEX
8
0
70
32
10
541.333
20
760.563
30
0
0
VERTEX
8
0
70
32
10
746.667
20
760.563
30
0
0
VERTEX
8
0
70
32
10
746.667
20
785.915
30
0
0
VERTEX
8
0
70
32
10
541.333
20
785.915
30
0
0
VERTEX
8
0
70
32
10
541.333
20
760.563
30
0
0
SEQEND
8
0
0
TEXT
8
0
62
0
10
536
20
773.239
30
0
40
15.2113
41
1
1
 IM
50
0
51
0
72
0
73
2
11
541.333
21
773.239
31
0
0
POLYLINE
8
0
62
0
66
1
70
8
10
0
20
0
30
0
0
VERTEX
8
0
70
32
10
13.3333
20
735.211
30
0
0
VERTEX
8
0
70
32
10
130.667
20
735.211
30
0
0
VERTEX
8
0
70
32
10
130.667
20
760.563
30
0
0
VERTEX
8
0
70
32
10
13.3333
20
760.563
30
0
0
VERTEX
8
0
70
32
10
13.3333
20
735.211
30
0
0
SEQEND
8
0
0
TEXT
8
0
62
0
10
8
20
747.887
30
0
40
15.2113
41
1
1
 1
50
0
51
0
72
1
73
2
11
72
21
747.887
31
0
0
POLYLINE
8
0
62
0
66
1
70
8
10
0
20
0
30
0
0
VERTEX
8
0
70
32
10
130.667
20
735.211
30
0
0
VERTEX
8
0
70
32
10
306.667
20
735.211
30
0
0
VERTEX
8
0
70
32
10
306.667
20
760.563
30
0
0
VERTEX
8
0
70
32
10
130.667
20
760.563
30
0
0
VERTEX
8
0
70
32
10
130.667
20
735.211
30
0
0
SEQEND
8
0
0
TEXT
8
0
62
0
10
125.333
20
747.887
30
0
40
15.2113
41
0.916667
1
 1st issue
50
0
51
0
72
1
73
2
11
218.667
21
747.887
31
0
0
POLYLINE
8
0
62
0
66
1
70
8
10
0
20
0
30
0
0
VERTEX
8
0
70
32
10
306.667
20
735.211
30
0
0
VERTEX
8
0
70
32
10
394.667
20
735.211
30
0
0
VERTEX
8
0
70
32
10
394.667
20
760.563
30
0
0
VERTEX
8
0
70
32
10
306.667
20
760.563
30
0
0
VERTEX
8
0
70
32
10
306.667
20
735.211
30
0
0
SEQEND
8
0
0
TEXT
8
0
62
0
10
301.333
20
747.887
30
0
40
15.2113
41
1
1
 
50
0
51
0
72
1
73
2
11
350.667
21
747.887
31
0
0
POLYLINE
8
0
62
0
66
1
70
8
10
0
20
0
30
0
0
VERTEX
8
0
70
32
10
394.667
20
735.211
30
0
0
VERTEX
8
0
70
32
10
453.333
20
735.211
30
0
0
VERTEX
8
0
70
32
10
453.333
20
760.563
30
0
0
VERTEX
8
0
70
32
10
394.667
20
760.563
30
0
0
VERTEX
8
0
70
32
10
394.667
20
735.211
30
0
0
SEQEND
8
0
0
TEXT
8
0
62
0
10
389.333
20
747.887
30
0
40
15.2113
41
1
1
 22
50
0
51
0
72
1
73
2
11
424
21
747.887
31
0
0
POLYLINE
8
0
62
0
66
1
70
8
10
0
20
0
30
0
0
VERTEX
8
0
70
32
10
453.333
20
735.211
30
0
0
VERTEX
8
0
70
32
10
541.333
20
735.211
30
0
0
VERTEX
8
0
70
32
10
541.333
20
760.563
30
0
0
VERTEX
8
0
70
32
10
453.333
20
760.563
30
0
0
VERTEX
8
0
70
32
10
453.333
20
735.211
30
0
0
SEQEND
8
0
0
TEXT
8
0
62
0
10
448
20
747.887
30
0
40
12.6761
41
1
1
 CHKD
50
0
51
0
72
1
73
2
11
497.333
21
747.887
31
0
0
POLYLINE
8
0
62
0
66
1
70
8
10
0
20
0
30
0
0
VERTEX
8
0
70
32
10
541.333
20
735.211
30
0
0
VERTEX
8
0
70
32
10
746.667
20
735.211
30
0
0
VERTEX
8
0
70
32
10
746.667
20
760.563
30
0
0
VERTEX
8
0
70
32
10
541.333
20
760.563
30
0
0
VERTEX
8
0
70
32
10
541.333
20
735.211
30
0
0
SEQEND
8
0
0
TEXT
8
0
62
0
10
536
20
747.887
30
0
40
15.2113
41
1
1
 AM
50
0
51
0
72
0
73
2
11
541.333
21
747.887
31
0
0
POLYLINE
8
0
62
0
66
1
70
8
10
0
20
0
30
0
0
VERTEX
8
0
70
32
10
2125.33
20
709.859
30
0
0
VERTEX
8
0
70
32
10
2330.67
20
709.859
30
0
0
VERTEX
8
0
70
32
10
2330.67
20
760.563
30
0
0
VERTEX
8
0
70
32
10
2125.33
20
760.563
30
0
0
VERTEX
8
0
70
32
10
2125.33
20
709.859
30
0
0
SEQEND
8
0
0
TEXT
8
0
62
0
10
2120
20
735.211
30
0
40
22.8169
41
0.649789
1
 %{machine}
50
0
51
0
72
1
73
2
11
2228
21
735.211
31
0
0
POLYLINE
8
0
62
0
66
1
70
8
10
0
20
0
30
0
0
VERTEX
8
0
70
32
10
2330.67
20
709.859
30
0
0
VERTEX
8
0
70
32
10
2829.33
20
709.859
30
0
0
VERTEX
8
0
70
32
10
2829.33
20
760.563
30
0
0
VERTEX
8
0
70
32
10
2330.67
20
760.563
30
0
0
VERTEX
8
0
70
32
10
2330.67
20
709.859
30
0
0
SEQEND
8
0
0
TEXT
8
0
62
0
10
2325.33
20
735.211
30
0
40
22.8169
41
1
1
 -IGC
50
0
51
0
72
1
73
2
11
2580
21
735.211
31
0
0
POLYLINE
8
0
62
0
66
1
70
8
10
0
20
0
30
0
0
VERTEX
8
0
70
32
10
2829.33
20
735.211
30
0
0
VERTEX
8
0
70
32
10
2946.67
20
735.211
30
0
0
VERTEX
8
0
70
32
10
2946.67
20
760.563
30
0
0
VERTEX
8
0
70
32
10
2829.33
20
760.563
30
0
0
VERTEX
8
0
70
32
10
2829.33
20
735.211
30
0
0
SEQEND
8
0
0
TEXT
8
0
62
0
10
2824
20
747.887
30
0
40
15.2113
41
0.766885
1
 Page: 1
50
0
51
0
72
0
73
2
11
2829.33
21
747.887
31
0
0
POLYLINE
8
0
62
0
66
1
70
8
10
0
20
0
30
0
0
VERTEX
8
0
70
32
10
13.3333
20
709.859
30
0
0
VERTEX
8
0
70
32
10
130.667
20
709.859
30
0
0
VERTEX
8
0
70
32
10
130.667
20
735.211
30
0
0
VERTEX
8
0
70
32
10
13.3333
20
735.211
30
0
0
VERTEX
8
0
70
32
10
13.3333
20
709.859
30
0
0
SEQEND
8
0
0
TEXT
8
0
62
0
10
8
20
722.535
30
0
40
12.6761
41
1
1
 REV
50
0
51
0
72
1
73
2
11
72
21
722.535
31
0
0
POLYLINE
8
0
62
0
66
1
70
8
10
0
20
0
30
0
0
VERTEX
8
0
70
32
10
130.667
20
709.859
30
0
0
VERTEX
8
0
70
32
10
306.667
20
709.859
30
0
0
VERTEX
8
0
70
32
10
306.667
20
735.211
30
0
0
VERTEX
8
0
70
32
10
130.667
20
735.211
30
0
0
VERTEX
8
0
70
32
10
130.667
20
709.859
30
0
0
SEQEND
8
0
0
TEXT
8
0
62
0
10
125.333
20
722.535
30
0
40
12.6761
41
1
1
 MOD
50
0
51
0
72
1
73
2
11
218.667
21
722.535
31
0
0
POLYLINE
8
0
62
0
66
1
70
8
10
0
20
0
30
0
0
VERTEX
8
0
70
32
10
306.667
20
709.859
30
0
0
VERTEX
8
0
70
32
10
394.667
20
709.859
30
0
0
VERTEX
8
0
70
32
10
394.667
20
735.211
30
0
0
VERTEX
8
0
70
32
10
306.667
20
735.211
30
0
0
VERTEX
8
0
70
32
10
306.667
20
709.859
30
0
0
SEQEND
8
0
0
TEXT
8
0
62
0
10
301.333
20
722.535
30
0
40
12.6761
41
1
1
 DATE
50
0
51
0
72
1
73
2
11
350.667
21
722.535
31
0
0
POLYLINE
8
0
62
0
66
1
70
8
10
0
20
0
30
0
0
VERTEX
8
0
70
32
10
394.667
20
709.859
30
0
0
VERTEX
8
0
70
32
10
453.333
20
709.859
30
0
0
VERTEX
8
0
70
32
10
453.333
20
735.211
30
0
0
VERTEX
8
0
70
32
10
394.667
20
735.211
30
0
0
VERTEX
8
0
70
32
10
394.667
20
709.859
30
0
0
SEQEND
8
0
0
TEXT
8
0
62
0
10
389.333
20
722.535
30
0
40
12.6761
41
0.742616
1
 INIT
50
0
51
0
72
1
73
2
11
424
21
722.535
31
0
0
POLYLINE
8
0
62
0
66
1
70
8
10
0
20
0
30
0
0
VERTEX
8
0
70
32
10
453.333
20
709.859
30
0
0
VERTEX
8
0
70
32
10
541.333
20
709.859
30
0
0
VERTEX
8
0
70
32
10
541.333
20
735.211
30
0
0
VERTEX
8
0
70
32
10
453.333
20
735.211
30
0
0
VERTEX
8
0
70
32
10
453.333
20
709.859
30
0
0
SEQEND
8
0
0
TEXT
8
0
62
0
10
448
20
722.535
30
0
40
12.6761
41
1
1
 APPD
50
0
51
0
72
1
73
2
11
497.333
21
722.535
31
0
0
POLYLINE
8
0
62
0
66
1
70
8
10
0
20
0
30
0
0
VERTEX
8
0
70
32
10
541.333
20
709.859
30
0
0
VERTEX
8
0
70
32
10
746.667
20
709.859
30
0
0
VERTEX
8
0
70
32
10
746.667
20
735.211
30
0
0
VERTEX
8
0
70
32
10
541.333
20
735.211
30
0
0
VERTEX
8
0
70
32
10
541.333
20
709.859
30
0
0
SEQEND
8
0
0
TEXT
8
0
62
0
10
536
20
722.535
30
0
40
15.2113
41
1
1
 AM
50
0
51
0
72
0
73
2
11
541.333
21
722.535
31
0
0
POLYLINE
8
0
62
0
66
1
70
8
10
0
20
0
30
0
0
VERTEX
8
0
70
32
10
746.667
20
709.859
30
0
0
VERTEX
8
0
70
32
10
1010.67
20
709.859
30
0
0
VERTEX
8
0
70
32
10
1010.67
20
735.211
30
0
0
VERTEX
8
0
70
32
10
746.667
20
735.211
30
0
0
VERTEX
8
0
70
32
10
746.667
20
709.859
30
0
0
SEQEND
8
0
0
TEXT
8
0
62
0
10
741.333
20
722.535
30
0
40
15.2113
41
1
1
 QET 0.8
50
0
51
0
72
0
73
2
11
746.667
21
722.535
31
0
0
POLYLINE
8
0
62
0
66
1
70
8
10
0
20
0
30
0
0
VERTEX
8
0
70
32
10
1010.67
20
709.859
30
0
0
VERTEX
8
0
70
32
10
1304
20
709.859
30
0
0
VERTEX
8
0
70
32
10
1304
20
735.211
30
0
0
VERTEX
8
0
70
32
10
1010.67
20
735.211
30
0
0
VERTEX
8
0
70
32
10
1010.67
20
709.859
30
0
0
SEQEND
8
0
0
TEXT
8
0
62
0
10
1005.33
20
722.535
30
0
40
15.2113
41
0.763889
1
 Intake Gate Control
50
0
51
0
72
0
73
2
11
1010.67
21
722.535
31
0
0
POLYLINE
8
0
62
0
66
1
70
8
10
0
20
0
30
0
0
VERTEX
8
0
70
32
10
1304
20
709.859
30
0
0
VERTEX
8
0
70
32
10
1626.67
20
709.859
30
0
0
VERTEX
8
0
70
32
10
1626.67
20
735.211
30
0
0
VERTEX
8
0
70
32
10
1304
20
735.211
30
0
0
VERTEX
8
0
70
32
10
1304
20
709.859
30
0
0
SEQEND
8
0
0
TEXT
8
0
62
0
10
1298.67
20
722.535
30
0
40
15.2113
41
0.886447
1
 Electrical Cabinet
50
0
51
0
72
0
73
2
11
1304
21
722.535
31
0
0
POLYLINE
8
0
62
0
66
1
70
8
10
0
20
0
30
0
0
VERTEX
8
0
70
32
10
2829.33
20
709.859
30
0
0
VERTEX
8
0
70
32
10
2946.67
20
709.859
30
0
0
VERTEX
8
0
70
32
10
2946.67
20
735.211
30
0
0
VERTEX
8
0
70
32
10
2829.33
20
735.211
30
0
0
VERTEX
8
0
70
32
10
2829.33
20
709.859
30
0
0
SEQEND
8
0
0
TEXT
8
0
62
0
10
2824
20
722.535
30
0
40
15.2113
41
0.766885
1
 Next: 2
50
0
51
0
72
0
73
2
11
2829.33
21
722.535
31
0
0
LINE
8
0
62
0
10
2155.19
20
1001.54
30
0
11
2599.16
21
1001.54
31
0
0
LINE
8
0
62
0
10
1786.53
20
1052.24
30
0
11
2154.53
21
1052.24
31
0
0
LINE
8
0
62
0
10
2155.19
20
950.831
30
0
11
2599.15
21
950.831
31
0
0
LINE
8
0
62
0
10
1786.53
20
1153.65
30
0
11
2154.53
21
1153.65
31
0
0
LINE
8
0
62
0
10
2501.2
20
1026.89
30
0
11
2501.2
21
976.183
31
0
0
LINE
8
0
62
0
10
2501.2
20
976.183
30
0
11
2501.2
21
925.479
31
0
0
LINE
8
0
62
0
10
1786.53
20
1102.94
30
0
11
2154.53
21
1102.94
31
0
0
LINE
8
0
62
0
10
2133.2
20
1026.89
30
0
11
2133.2
21
976.183
31
0
0
LINE
8
0
62
0
10
2208
20
975.914
30
0
11
2208
21
925.507
31
0
0
LINE
8
0
62
0
10
2368
20
976.056
30
0
11
2368
21
925.352
31
0
0
LINE
8
0
62
0
10
2133.2
20
1229.7
30
0
11
2133.2
21
1179
31
0
0
LINE
8
0
62
0
10
2208
20
1026.62
30
0
11
2208
21
976.208
31
0
0
LINE
8
0
62
0
10
2368
20
1026.76
30
0
11
2368
21
976.056
31
0
0
LINE
8
0
62
0
10
2133.2
20
1179
30
0
11
2133.2
21
1128.3
31
0
0
LINE
8
0
62
0
10
2133.2
20
1128.3
30
0
11
2133.2
21
1077.59
31
0
0
LINE
8
0
62
0
10
1840
20
1178.73
30
0
11
1840
21
1128.32
31
0
0
LINE
8
0
62
0
10
2133.2
20
1077.59
30
0
11
2133.2
21
1026.89
31
0
0
LINE
8
0
62
0
10
2000
20
1178.87
30
0
11
2000
21
1128.17
31
0
0
LINE
8
0
62
0
10
1786.53
20
950.831
30
0
11
2154.53
21
950.831
31
0
0
LINE
8
0
62
0
10
1786.53
20
900.127
30
0
11
2154.53
21
900.127
31
0
0
LINE
8
0
62
0
10
1840
20
1077.32
30
0
11
1840
21
1026.92
31
0
0
LINE
8
0
62
0
10
2000
20
1077.46
30
0
11
2000
21
1026.76
31
0
0
LINE
8
0
62
0
10
1786.53
20
849.423
30
0
11
2154.53
21
849.423
31
0
0
LINE
8
0
62
0
10
1840
20
1128.03
30
0
11
1840
21
1077.62
31
0
0
LINE
8
0
62
0
10
2000
20
1128.17
30
0
11
2000
21
1077.46
31
0
0
LINE
8
0
62
0
10
2133.2
20
976.183
30
0
11
2133.2
21
925.479
31
0
0
LINE
8
0
62
0
10
2133.2
20
925.479
30
0
11
2133.2
21
874.775
31
0
0
LINE
8
0
62
0
10
1840
20
975.914
30
0
11
1840
21
925.507
31
0
0
LINE
8
0
62
0
10
2133.2
20
876.263
30
0
11
2133.2
21
850.345
31
0
0
LINE
8
0
62
0
10
2000
20
976.056
30
0
11
2000
21
925.352
31
0
0
LINE
8
0
62
0
10
1840
20
876.002
30
0
11
1840
21
850.366
31
0
0
LINE
8
0
62
0
10
2000
20
876.136
30
0
11
2000
21
850.219
31
0
0
LINE
8
0
62
0
10
1840
20
925.21
30
0
11
1840
21
874.8
31
0
0
LINE
8
0
62
0
10
2000
20
925.352
30
0
11
2000
21
874.648
31
0
0
LINE
8
0
62
0
10
1840
20
1026.62
30
0
11
1840
21
976.208
31
0
0
LINE
8
0
62
0
10
2000
20
1026.76
30
0
11
2000
21
976.056
31
0
0
LINE
8
0
62
0
10
1786.67
20
1001.41
30
0
11
2154.67
21
1001.41
31
0
0
LINE
8
0
62
0
10
1840
20
1229.44
30
0
11
1840
21
1179.03
31
0
0
LINE
8
0
62
0
10
2000
20
1229.58
30
0
11
2000
21
1178.87
31
0
0
LINE
8
0
62
0
10
1786.67
20
1204.23
30
0
11
2154.67
21
1204.23
31
0
0
LINE
8
0
62
0
10
2600
20
876.136
30
0
11
2600
21
850.219
31
0
0
LINE
8
0
62
0
10
2800
20
925.352
30
0
11
2800
21
874.648
31
0
0
POLYLINE
8
0
62
0
66
1
70
8
10
0
20
0
30
0
0
VERTEX
8
0
70
32
10
2154.67
20
976.056
30
0
0
VERTEX
8
0
70
32
10
2600
20
976.056
30
0
0
VERTEX
8
0
70
32
10
2600
20
925.352
30
0
0
VERTEX
8
0
70
32
10
2154.67
20
925.352
30
0
0
VERTEX
8
0
70
32
10
2154.67
20
976.056
30
0
0
SEQEND
8
0
0
POLYLINE
8
0
62
0
66
1
70
8
10
0
20
0
30
0
0
VERTEX
8
0
70
32
10
2800
20
892.394
30
0
0
VERTEX
8
0
70
32
10
2912
20
892.394
30
0
0
VERTEX
8
0
70
32
10
2912
20
874.648
30
0
0
VERTEX
8
0
70
32
10
2800
20
874.648
30
0
0
VERTEX
8
0
70
32
10
2800
20
892.394
30
0
0
SEQEND
8
0
0
POLYLINE
8
0
62
0
66
1
70
8
10
0
20
0
30
0
0
VERTEX
8
0
70
32
10
2154.67
20
1026.76
30
0
0
VERTEX
8
0
70
32
10
2600
20
1026.76
30
0
0
VERTEX
8
0
70
32
10
2600
20
976.056
30
0
0
VERTEX
8
0
70
32
10
2154.67
20
976.056
30
0
0
VERTEX
8
0
70
32
10
2154.67
20
1026.76
30
0
0
SEQEND
8
0
0
POLYLINE
8
0
62
0
66
1
70
8
10
0
20
0
30
0
0
VERTEX
8
0
70
32
10
2600
20
1432.39
30
0
0
VERTEX
8
0
70
32
10
2912
20
1432.39
30
0
0
VERTEX
8
0
70
32
10
2912
20
1330.99
30
0
0
VERTEX
8
0
70
32
10
2600
20
1330.99
30
0
0
VERTEX
8
0
70
32
10
2600
20
1432.39
30
0
0
SEQEND
8
0
0
POLYLINE
8
0
62
0
66
1
70
8
10
0
20
0
30
0
0
VERTEX
8
0
70
32
10
1786.67
20
1381.69
30
0
0
VERTEX
8
0
70
32
10
2600
20
1381.69
30
0
0
VERTEX
8
0
70
32
10
2600
20
1330.99
30
0
0
VERTEX
8
0
70
32
10
1786.67
20
1330.99
30
0
0
VERTEX
8
0
70
32
10
1786.67
20
1381.69
30
0
0
SEQEND
8
0
0
POLYLINE
8
0
62
0
66
1
70
8
10
0
20
0
30
0
0
VERTEX
8
0
70
32
10
1786.67
20
1381.69
30
0
0
VERTEX
8
0
70
32
10
2600
20
1381.69
30
0
0
VERTEX
8
0
70
32
10
2600
20
1330.99
30
0
0
VERTEX
8
0
70
32
10
1786.67
20
1330.99
30
0
0
VERTEX
8
0
70
32
10
1786.67
20
1381.69
30
0
0
SEQEND
8
0
0
POLYLINE
8
0
62
0
66
1
70
8
10
0
20
0
30
0
0
VERTEX
8
0
70
32
10
1786.67
20
1128.17
30
0
0
VERTEX
8
0
70
32
10
2154.67
20
1128.17
30
0
0
VERTEX
8
0
70
32
10
2154.67
20
1077.46
30
0
0
VERTEX
8
0
70
32
10
1786.67
20
1077.46
30
0
0
VERTEX
8
0
70
32
10
1786.67
20
1128.17
30
0
0
SEQEND
8
0
0
POLYLINE
8
0
62
0
66
1
70
8
10
0
20
0
30
0
0
VERTEX
8
0
70
32
10
1786.67
20
1178.87
30
0
0
VERTEX
8
0
70
32
10
2154.67
20
1178.87
30
0
0
VERTEX
8
0
70
32
10
2154.67
20
1128.17
30
0
0
VERTEX
8
0
70
32
10
1786.67
20
1128.17
30
0
0
VERTEX
8
0
70
32
10
1786.67
20
1178.87
30
0
0
SEQEND
8
0
0
POLYLINE
8
0
62
0
66
1
70
8
10
0
20
0
30
0
0
VERTEX
8
0
70
32
10
1786.67
20
1432.39
30
0
0
VERTEX
8
0
70
32
10
2600
20
1432.39
30
0
0
VERTEX
8
0
70
32
10
2600
20
1381.69
30
0
0
VERTEX
8
0
70
32
10
1786.67
20
1381.69
30
0
0
VERTEX
8
0
70
32
10
1786.67
20
1432.39
30
0
0
SEQEND
8
0
0
POLYLINE
8
0
62
0
66
1
70
8
10
0
20
0
30
0
0
VERTEX
8
0
70
32
10
1786.67
20
1229.58
30
0
0
VERTEX
8
0
70
32
10
2154.67
20
1229.58
30
0
0
VERTEX
8
0
70
32
10
2154.67
20
1178.87
30
0
0
VERTEX
8
0
70
32
10
1786.67
20
1178.87
30
0
0
VERTEX
8
0
70
32
10
1786.67
20
1229.58
30
0
0
SEQEND
8
0
0
POLYLINE
8
0
62
0
66
1
70
8
10
0
20
0
30
0
0
VERTEX
8
0
70
32
10
1786.67
20
1077.46
30
0
0
VERTEX
8
0
70
32
10
2154.67
20
1077.46
30
0
0
VERTEX
8
0
70
32
10
2154.67
20
1026.76
30
0
0
VERTEX
8
0
70
32
10
1786.67
20
1026.76
30
0
0
VERTEX
8
0
70
32
10
1786.67
20
1077.46
30
0
0
SEQEND
8
0
0
POLYLINE
8
0
62
0
66
1
70
8
10
0
20
0
30
0
0
VERTEX
8
0
70
32
10
2600
20
1483.1
30
0
0
VERTEX
8
0
70
32
10
2912
20
1483.1
30
0
0
VERTEX
8
0
70
32
10
2912
20
1432.39
30
0
0
VERTEX
8
0
70
32
10
2600
20
1432.39
30
0
0
VERTEX
8
0
70
32
10
2600
20
1483.1
30
0
0
SEQEND
8
0
0
POLYLINE
8
0
62
0
66
1
70
8
10
0
20
0
30
0
0
VERTEX
8
0
70
32
10
1786.67
20
1026.76
30
0
0
VERTEX
8
0
70
32
10
2154.67
20
1026.76
30
0
0
VERTEX
8
0
70
32
10
2154.67
20
976.056
30
0
0
VERTEX
8
0
70
32
10
1786.67
20
976.056
30
0
0
VERTEX
8
0
70
32
10
1786.67
20
1026.76
30
0
0
SEQEND
8
0
0
POLYLINE
8
0
62
0
66
1
70
8
10
0
20
0
30
0
0
VERTEX
8
0
70
32
10
2600
20
1128.17
30
0
0
VERTEX
8
0
70
32
10
2912
20
1128.17
30
0
0
VERTEX
8
0
70
32
10
2912
20
1026.76
30
0
0
VERTEX
8
0
70
32
10
2600
20
1026.76
30
0
0
VERTEX
8
0
70
32
10
2600
20
1128.17
30
0
0
SEQEND
8
0
0
POLYLINE
8
0
62
0
66
1
70
8
10
0
20
0
30
0
0
VERTEX
8
0
70
32
10
1786.67
20
976.056
30
0
0
VERTEX
8
0
70
32
10
2154.67
20
976.056
30
0
0
VERTEX
8
0
70
32
10
2154.67
20
925.352
30
0
0
VERTEX
8
0
70
32
10
1786.67
20
925.352
30
0
0
VERTEX
8
0
70
32
10
1786.67
20
976.056
30
0
0
SEQEND
8
0
0
POLYLINE
8
0
62
0
66
1
70
8
10
0
20
0
30
0
0
VERTEX
8
0
70
32
10
1786.67
20
1280.28
30
0
0
VERTEX
8
0
70
32
10
2600
20
1280.28
30
0
0
VERTEX
8
0
70
32
10
2600
20
1229.58
30
0
0
VERTEX
8
0
70
32
10
1786.67
20
1229.58
30
0
0
VERTEX
8
0
70
32
10
1786.67
20
1280.28
30
0
0
SEQEND
8
0
0
POLYLINE
8
0
62
0
66
1
70
8
10
0
20
0
30
0
0
VERTEX
8
0
70
32
10
1786.67
20
925.352
30
0
0
VERTEX
8
0
70
32
10
2154.67
20
925.352
30
0
0
VERTEX
8
0
70
32
10
2154.67
20
874.648
30
0
0
VERTEX
8
0
70
32
10
1786.67
20
874.648
30
0
0
VERTEX
8
0
70
32
10
1786.67
20
925.352
30
0
0
SEQEND
8
0
0
POLYLINE
8
0
62
0
66
1
70
8
10
0
20
0
30
0
0
VERTEX
8
0
70
32
10
2600
20
1229.58
30
0
0
VERTEX
8
0
70
32
10
2912
20
1229.58
30
0
0
VERTEX
8
0
70
32
10
2912
20
1128.17
30
0
0
VERTEX
8
0
70
32
10
2600
20
1128.17
30
0
0
VERTEX
8
0
70
32
10
2600
20
1229.58
30
0
0
SEQEND
8
0
0
POLYLINE
8
0
62
0
66
1
70
8
10
0
20
0
30
0
0
VERTEX
8
0
70
32
10
1786.67
20
874.648
30
0
0
VERTEX
8
0
70
32
10
2154.67
20
874.648
30
0
0
VERTEX
8
0
70
32
10
2154.67
20
849.296
30
0
0
VERTEX
8
0
70
32
10
1786.67
20
849.296
30
0
0
VERTEX
8
0
70
32
10
1786.67
20
874.648
30
0
0
SEQEND
8
0
0
POLYLINE
8
0
62
0
66
1
70
8
10
0
20
0
30
0
0
VERTEX
8
0
70
32
10
1786.67
20
1280.28
30
0
0
VERTEX
8
0
70
32
10
2600
20
1280.28
30
0
0
VERTEX
8
0
70
32
10
2600
20
1229.58
30
0
0
VERTEX
8
0
70
32
10
1786.67
20
1229.58
30
0
0
VERTEX
8
0
70
32
10
1786.67
20
1280.28
30
0
0
SEQEND
8
0
0
POLYLINE
8
0
62
0
66
1
70
8
10
0
20
0
30
0
0
VERTEX
8
0
70
32
10
1786.67
20
1330.99
30
0
0
VERTEX
8
0
70
32
10
2600
20
1330.99
30
0
0
VERTEX
8
0
70
32
10
2600
20
1280.28
30
0
0
VERTEX
8
0
70
32
10
1786.67
20
1280.28
30
0
0
VERTEX
8
0
70
32
10
1786.67
20
1330.99
30
0
0
SEQEND
8
0
0
POLYLINE
8
0
62
0
66
1
70
8
10
0
20
0
30
0
0
VERTEX
8
0
70
32
10
1786.67
20
1330.99
30
0
0
VERTEX
8
0
70
32
10
2600
20
1330.99
30
0
0
VERTEX
8
0
70
32
10
2600
20
1280.28
30
0
0
VERTEX
8
0
70
32
10
1786.67
20
1280.28
30
0
0
VERTEX
8
0
70
32
10
1786.67
20
1330.99
30
0
0
SEQEND
8
0
0
POLYLINE
8
0
62
0
66
1
70
8
10
0
20
0
30
0
0
VERTEX
8
0
70
32
10
2600
20
1330.99
30
0
0
VERTEX
8
0
70
32
10
2912
20
1330.99
30
0
0
VERTEX
8
0
70
32
10
2912
20
1229.58
30
0
0
VERTEX
8
0
70
32
10
2600
20
1229.58
30
0
0
VERTEX
8
0
70
32
10
2600
20
1330.99
30
0
0
SEQEND
8
0
0
POLYLINE
8
0
62
0
66
1
70
8
10
0
20
0
30
0
0
VERTEX
8
0
70
32
10
1786.67
20
1432.39
30
0
0
VERTEX
8
0
70
32
10
2154.67
20
1432.39
30
0
0
VERTEX
8
0
70
32
10
2154.67
20
1381.69
30
0
0
VERTEX
8
0
70
32
10
1786.67
20
1381.69
30
0
0
VERTEX
8
0
70
32
10
1786.67
20
1432.39
30
0
0
SEQEND
8
0
0
POLYLINE
8
0
62
0
66
1
70
8
10
0
20
0
30
0
0
VERTEX
8
0
70
32
10
1786.67
20
1483.1
30
0
0
VERTEX
8
0
70
32
10
2853.33
20
1483.1
30
0
0
VERTEX
8
0
70
32
10
2853.33
20
1432.39
30
0
0
VERTEX
8
0
70
32
10
1786.67
20
1432.39
30
0
0
VERTEX
8
0
70
32
10
1786.67
20
1483.1
30
0
0
SEQEND
8
0
0
POLYLINE
8
0
62
0
66
1
70
8
10
0
20
0
30
0
0
VERTEX
8
0
70
32
10
1786.67
20
1381.69
30
0
0
VERTEX
8
0
70
32
10
2154.67
20
1381.69
30
0
0
VERTEX
8
0
70
32
10
2154.67
20
1330.99
30
0
0
VERTEX
8
0
70
32
10
1786.67
20
1330.99
30
0
0
VERTEX
8
0
70
32
10
1786.67
20
1381.69
30
0
0
SEQEND
8
0
0
POLYLINE
8
0
62
0
66
1
70
8
10
0
20
0
30
0
0
VERTEX
8
0
70
32
10
1786.67
20
1330.99
30
0
0
VERTEX
8
0
70
32
10
2154.67
20
1330.99
30
0
0
VERTEX
8
0
70
32
10
2154.67
20
1280.28
30
0
0
VERTEX
8
0
70
32
10
1786.67
20
1280.28
30
0
0
VERTEX
8
0
70
32
10
1786.67
20
1330.99
30
0
0
SEQEND
8
0
0
POLYLINE
8
0
62
0
66
1
70
8
10
0
20
0
30
0
0
VERTEX
8
0
70
32
10
1786.67
20
1280.28
30
0
0
VERTEX
8
0
70
32
10
2154.67
20
1280.28
30
0
0
VERTEX
8
0
70
32
10
2154.67
20
1229.58
30
0
0
VERTEX
8
0
70
32
10
1786.67
20
1229.58
30
0
0
VERTEX
8
0
70
32
10
1786.67
20
1280.28
30
0
0
SEQEND
8
0
0
POLYLINE
8
0
62
0
66
1
70
8
10
0
20
0
30
0
0
VERTEX
8
0
70
32
10
1786.67
20
1432.39
30
0
0
VERTEX
8
0
70
32
10
2600
20
1432.39
30
0
0
VERTEX
8
0
70
32
10
2600
20
1381.69
30
0
0
VERTEX
8
0
70
32
10
1786.67
20
1381.69
30
0
0
VERTEX
8
0
70
32
10
1786.67
20
1432.39
30
0
0
SEQEND
8
0
0
POLYLINE
8
0
62
0
66
1
70
8
10
0
20
0
30
0
0
VERTEX
8
0
70
32
10
2154.67
20
1229.58
30
0
0
VERTEX
8
0
70
32
10
2600
20
1229.58
30
0
0
VERTEX
8
0
70
32
10
2600
20
1026.76
30
0
0
VERTEX
8
0
70
32
10
2154.67
20
1026.76
30
0
0
VERTEX
8
0
70
32
10
2154.67
20
1229.58
30
0
0
SEQEND
8
0
0
POLYLINE
8
0
62
0
66
1
70
8
10
0
20
0
30
0
0
VERTEX
8
0
70
32
10
2154.67
20
925.352
30
0
0
VERTEX
8
0
70
32
10
2600
20
925.352
30
0
0
VERTEX
8
0
70
32
10
2600
20
874.648
30
0
0
VERTEX
8
0
70
32
10
2154.67
20
874.648
30
0
0
VERTEX
8
0
70
32
10
2154.67
20
925.352
30
0
0
SEQEND
8
0
0
POLYLINE
8
0
62
0
66
1
70
8
10
0
20
0
30
0
0
VERTEX
8
0
70
32
10
2600
20
1026.76
30
0
0
VERTEX
8
0
70
32
10
2912
20
1026.76
30
0
0
VERTEX
8
0
70
32
10
2912
20
925.352
30
0
0
VERTEX
8
0
70
32
10
2600
20
925.352
30
0
0
VERTEX
8
0
70
32
10
2600
20
1026.76
30
0
0
SEQEND
8
0
0
POLYLINE
8
0
62
0
66
1
70
8
10
0
20
0
30
0
0
VERTEX
8
0
70
32
10
2600
20
925.352
30
0
0
VERTEX
8
0
70
32
10
2912
20
925.352
30
0
0
VERTEX
8
0
70
32
10
2912
20
874.648
30
0
0
VERTEX
8
0
70
32
10
2600
20
874.648
30
0
0
VERTEX
8
0
70
32
10
2600
20
925.352
30
0
0
SEQEND
8
0
0
POLYLINE
8
0
62
0
66
1
70
8
10
0
20
0
30
0
0
VERTEX
8
0
70
32
10
2800
20
925.352
30
0
0
VERTEX
8
0
70
32
10
2912
20
925.352
30
0
0
VERTEX
8
0
70
32
10
2912
20
907.606
30
0
0
VERTEX
8
0
70
32
10
2800
20
907.606
30
0
0
VERTEX
8
0
70
32
10
2800
20
925.352
30
0
0
SEQEND
8
0
0
POLYLINE
8
0
62
0
66
1
70
8
10
0
20
0
30
0
0
VERTEX
8
0
70
32
10
1786.67
20
874.648
30
0
0
VERTEX
8
0
70
32
10
2912
20
874.648
30
0
0
VERTEX
8
0
70
32
10
2912
20
849.296
30
0
0
VERTEX
8
0
70
32
10
1786.67
20
849.296
30
0
0
VERTEX
8
0
70
32
10
1786.67
20
874.648
30
0
0
SEQEND
8
0
0
TEXT
8
0
62
0
10
1797.33
20
1363.44
30
0
40
10.1408
41
0.72
1
AUXILIARY CIRCUIT VOLTAGE 
50
360
0
TEXT
8
0
62
0
10
2170.67
20
1262.03
30
0
40
10.1408
41
0.72
1
Ambient Temperature - 
50
360
0
TEXT
8
0
62
0
10
2170.67
20
1414.14
30
0
40
10.1408
41
0.72
1
400V Conductor Color - Black
50
360
0
TEXT
8
0
62
0
10
2170.67
20
1312.73
30
0
40
10.1408
41
0.72
1
24DVC Conductor Color - Blue 
50
360
0
TEXT
8
0
62
0
10
1797.33
20
1262.03
30
0
40
10.1408
41
0.72
1
PROTECTION
50
360
0
TEXT
8
0
62
0
10
2037.33
20
1414.14
30
0
40
10.1408
41
0.72
1
3 x 400V 50HZ
50
360
0
TEXT
8
0
62
0
10
1797.33
20
1312.73
30
0
40
10.1408
41
0.72
1
AUXILIARY CIRCUIT VOLTAGE
50
360
0
TEXT
8
0
62
0
10
2064
20
1363.44
30
0
40
10.1408
41
0.72
1
230V 50Hz
50
360
0
TEXT
8
0
62
0
10
1797.33
20
1414.14
30
0
40
10.1408
41
0.72
1
MAINS VOLTAGE
50
360
0
TEXT
8
0
62
0
10
2090.67
20
1262.03
30
0
40
10.1408
41
0.72
1
IP55
50
360
0
TEXT
8
0
62
0
10
2090.67
20
1312.73
30
0
40
10.1408
41
0.72
1
24VDC
50
360
0
TEXT
8
0
62
0
10
2170.67
20
1363.44
30
0
40
10.1408
41
0.72
1
230V Conductor Color - Black
50
360
0
ENDSEC
0
EOF